HIERARCHY
ROOT Hips
{
	OFFSET 0.000000 0.000000 0.000000
	CHANNELS 6 Xposition Yposition Zposition Xrotation Yrotation Zrotation
	JOINT LeftUpLeg_virtual
	{
		OFFSET 0.000000 0.000000 0.000000
		CHANNELS 3 Xrotation Yrotation Zrotation
		JOINT LeftUpLeg
		{
			OFFSET 10.205400 -3.823500 0.155100
			CHANNELS 3 Xrotation Yrotation Zrotation
			JOINT LeftLeg
			{
				OFFSET 0.708757 -12.982077 0.567790
				CHANNELS 3 Xrotation Yrotation Zrotation
				JOINT LeftFoot
				{
					OFFSET -0.708756 -10.717838 -2.184338
					CHANNELS 3 Xrotation Yrotation Zrotation
					JOINT LeftToeBase
					{
						OFFSET 0.108149 -7.191104 7.560241
						CHANNELS 3 Xrotation Yrotation Zrotation
						JOINT LeftToe_End
						{
							OFFSET 0.070230 0.081724 4.490308
							CHANNELS 3 Xrotation Yrotation Zrotation
							End Site
							{
								OFFSET 0 0 0
							}
						}
					}
				}
			}
		}
	}
	JOINT RightUpLeg_virtual
	{
		OFFSET 0.000000 0.000000 0.000000
		CHANNELS 3 Xrotation Yrotation Zrotation
		JOINT RightUpLeg
		{
			OFFSET -10.205400 -3.823500 0.005500
			CHANNELS 3 Xrotation Yrotation Zrotation
			JOINT RightLeg
			{
				OFFSET -0.708756 -12.982134 0.610632
				CHANNELS 3 Xrotation Yrotation Zrotation
				JOINT RightFoot
				{
					OFFSET 0.708754 -10.717769 -1.945823
					CHANNELS 3 Xrotation Yrotation Zrotation
					JOINT RightToeBase
					{
						OFFSET -0.108140 -7.191069 7.372968
						CHANNELS 3 Xrotation Yrotation Zrotation
						JOINT RightToe_End
						{
							OFFSET -0.070227 0.081735 4.479403
							CHANNELS 3 Xrotation Yrotation Zrotation
							End Site
							{
								OFFSET 0 0 0
							}
						}
					}
				}
			}
		}
	}
	JOINT Spine_virtual
	{
		OFFSET 0.000000 0.000000 0.000000
		CHANNELS 3 Xrotation Yrotation Zrotation
		JOINT Spine
		{
			OFFSET 0.000000 6.876099 0.125700
			CHANNELS 3 Xrotation Yrotation Zrotation
			JOINT Spine1
			{
				OFFSET 0.000000 5.730043 0.104720
				CHANNELS 3 Xrotation Yrotation Zrotation
				JOINT Spine1_split
				{
					OFFSET 0.000000 5.730043 0.104720
					CHANNELS 3 Xrotation Yrotation Zrotation
					JOINT Spine2
					{
						OFFSET 0.000000 5.730043 0.104720
						CHANNELS 3 Xrotation Yrotation Zrotation
						JOINT Neck_virtual
						{
							OFFSET 0.000000 0.000000 0.000000
							CHANNELS 3 Xrotation Yrotation Zrotation
							JOINT Neck
							{
								OFFSET 0.000000 10.314075 0.188496
								CHANNELS 3 Xrotation Yrotation Zrotation
								JOINT Head
								{
									OFFSET 0.000000 7.643700 -2.377400
									CHANNELS 3 Xrotation Yrotation Zrotation
									JOINT HeadTop_End
									{
										OFFSET 0.000000 43.788605 -13.619600
										CHANNELS 3 Xrotation Yrotation Zrotation
										End Site
										{
											OFFSET 0 0 0
										}
									}
								}
							}
						}
						JOINT LeftShoulder_virtual
						{
							OFFSET 0.000000 0.000000 0.000000
							CHANNELS 3 Xrotation Yrotation Zrotation
							JOINT LeftShoulder
							{
								OFFSET 2.196100 4.412489 0.087492
								CHANNELS 3 Xrotation Yrotation Zrotation
								JOINT LeftShoulder_split
								{
									OFFSET 2.196100 4.412489 0.087492
									CHANNELS 3 Xrotation Yrotation Zrotation
									JOINT LeftArm
									{
										OFFSET 8.771219 -2.981674 -0.026999
										CHANNELS 3 Xrotation Yrotation Zrotation
										JOINT LeftForeArm
										{
											OFFSET 8.512804 0.000000 -0.000000
											CHANNELS 3 Xrotation Yrotation Zrotation
											JOINT LeftHand
											{
												OFFSET 18.484802 0.000000 -0.000000
												CHANNELS 3 Xrotation Yrotation Zrotation
												End Site
												{
													OFFSET 0 0 0
												}
											}
										}
									}
								}
							}
						}
						JOINT RightShoulder_virtual
						{
							OFFSET 0.000000 0.000000 0.000000
							CHANNELS 3 Xrotation Yrotation Zrotation
							JOINT RightShoulder
							{
								OFFSET -2.196100 4.412496 0.070690
								CHANNELS 3 Xrotation Yrotation Zrotation
								JOINT RightShoulder_split
								{
									OFFSET -2.196100 4.412496 0.070690
									CHANNELS 3 Xrotation Yrotation Zrotation
									JOINT RightArm
									{
										OFFSET -8.771282 -2.981682 -0.094208
										CHANNELS 3 Xrotation Yrotation Zrotation
										JOINT RightForeArm
										{
											OFFSET -8.494598 0.000000 0.000000
											CHANNELS 3 Xrotation Yrotation Zrotation
											JOINT RightHand
											{
												OFFSET -18.483803 0.000000 0.000001
												CHANNELS 3 Xrotation Yrotation Zrotation
												End Site
												{
													OFFSET 0 0 0
												}
											}
										}
									}
								}
							}
						}
					}
				}
			}
		}
	}
}
MOTION
Frames: 6
Frame Time: 0.03333333
-25.160175 6.937761 0.993732 0.000000 0.000000 0.000000 -59.315050 9.165225 97.356389 -22.692894 26.544548 -4.096018 56.171165 -1.897312 -7.229450 -23.986660 -12.127190 6.026210 -1.295523 -0.033272 -0.027834 0.000000 0.000000 0.000000 -59.315050 9.165225 97.356389 -25.063922 -50.516366 5.642880 122.232027 -12.413413 3.455949 -39.645235 4.003372 14.928652 -0.001732 0.015042 -0.000104 0.000000 0.000000 0.000000 -59.315050 9.165225 97.356389 13.669153 -0.031364 -4.744290 16.440306 0.246665 -3.275167 0.000000 0.000000 0.000000 0.000000 0.000000 0.000000 16.425638 0.382579 -3.359043 55.837876 6.470990 -15.932345 -15.707538 9.351472 1.833019 0.000000 0.000000 0.000000 16.425638 0.382579 -3.359043 5.814966 1.516417 -4.688144 0.000000 0.000000 0.000000 -74.915263 -6.740975 -27.974773 58.640808 -0.227355 0.365200 0.000000 0.000000 0.000000 16.425638 0.382579 -3.359043 4.351004 9.519751 -3.915238 0.000000 0.000000 0.000000 -1.908446 -4.831222 1.339513 32.754616 33.258766 -23.829340 0.000000 0.000000 0.000000 
-25.778103 5.498886 1.121584 0.000000 0.000000 0.000000 -58.142019 -0.922983 102.557640 -17.652755 16.661883 -2.517593 63.356445 9.868542 -8.319194 -39.272041 -3.404528 -5.478977 -1.205632 -0.003107 -0.002229 0.000000 0.000000 0.000000 -58.142019 -0.922983 102.557640 -23.823061 -53.418247 9.230073 127.426523 -33.370832 -1.521401 -56.912821 -4.678343 17.240096 -0.001685 0.017348 -0.000121 0.000000 0.000000 0.000000 -58.142019 -0.922983 102.557640 17.616245 -1.641468 -3.646253 13.624166 -1.732716 -2.465775 0.000000 0.000000 0.000000 0.000000 0.000000 0.000000 13.638202 -1.655710 -2.445539 61.075511 1.954518 -14.888460 -12.574470 6.608057 -1.023410 0.000000 0.000000 0.000000 13.638202 -1.655710 -2.445539 5.241389 7.707915 -14.772666 0.000000 0.000000 0.000000 -82.451510 -2.394256 -28.832892 71.492130 -0.210154 0.553418 0.000000 0.000000 0.000000 13.638202 -1.655710 -2.445539 4.001950 5.115522 -8.837220 0.000000 0.000000 0.000000 0.941046 11.676214 -0.032732 16.412159 34.300165 -10.963364 0.000000 0.000000 0.000000 
-26.681665 5.293285 1.123768 0.000000 0.000000 0.000000 -59.079962 -8.571396 107.374433 -12.916571 8.413372 -3.718569 62.418196 24.012155 -7.687801 -31.951977 4.943367 -12.929442 -1.193385 0.000772 0.001082 0.000000 0.000000 0.000000 -59.079962 -8.571396 107.374433 -28.458306 -46.648686 -2.438594 127.436222 -35.523407 -2.480535 -54.216976 -9.285926 18.885832 -0.001708 0.019196 -0.000154 0.000000 0.000000 0.000000 -59.079962 -8.571396 107.374433 17.215780 -1.056250 -5.366864 11.398451 -0.584635 -0.043191 0.000000 0.000000 0.000000 0.000000 0.000000 0.000000 11.409017 -0.296432 -0.105062 54.211068 -1.921296 -8.891007 -10.171431 -2.965733 3.741873 0.000000 0.000000 0.000000 11.409017 -0.296432 -0.105062 2.907749 8.859730 -22.825142 0.000000 0.000000 0.000000 -91.371593 5.872623 -27.433376 67.652785 -0.270060 0.721406 0.000000 0.000000 0.000000 11.409017 -0.296432 -0.105062 5.114552 27.130553 -12.631191 0.000000 0.000000 0.000000 5.284832 -4.495280 -1.329831 24.650096 25.912189 -13.127679 0.000000 0.000000 0.000000 
-30.004295 5.310488 0.347958 0.000000 0.000000 0.000000 -65.589774 -13.148417 108.079472 -19.968977 2.181767 -5.489979 54.439152 30.376993 -2.788972 -0.334967 4.281253 2.282560 -1.186184 0.003058 0.003080 0.000000 0.000000 0.000000 -65.589774 -13.148417 108.079472 -25.661878 -32.312693 -19.692667 110.801118 -16.708186 4.524712 -38.802479 -7.168371 23.547589 -0.001743 0.020616 -0.000197 0.000000 0.000000 0.000000 -65.589774 -13.148417 108.079472 15.311116 0.972165 -5.019434 10.109184 2.099975 3.898067 0.000000 0.000000 0.000000 0.000000 0.000000 0.000000 10.066536 2.539760 3.718508 35.117967 -7.903660 -5.097220 -11.562682 -11.343111 4.879125 0.000000 0.000000 0.000000 10.066536 2.539760 3.718508 1.459243 5.850936 -21.104858 0.000000 0.000000 0.000000 -91.026273 18.797323 -28.629791 23.564856 -0.306006 0.116256 0.000000 0.000000 0.000000 10.066536 2.539760 3.718508 6.068705 10.397466 -16.699223 0.000000 0.000000 0.000000 -9.280404 9.533694 4.128674 32.684173 20.235395 -12.252943 0.000000 0.000000 0.000000 
-32.507751 5.294075 -0.671423 0.000000 0.000000 0.000000 -73.806929 -16.140707 105.598058 -19.222517 -6.298476 -2.108808 41.547057 36.983101 -1.634879 18.455140 7.846924 -0.852201 -1.180079 0.004955 0.004730 0.000000 0.000000 0.000000 -73.806929 -16.140707 105.598058 -27.714626 -27.914003 -29.778628 91.987888 -14.727916 10.109175 -17.633469 -1.939330 21.679586 -0.001769 0.021679 -0.000217 0.000000 0.000000 0.000000 -73.806929 -16.140707 105.598058 15.601626 0.529828 -2.032381 8.202057 0.361828 4.664749 0.000000 0.000000 0.000000 0.000000 0.000000 0.000000 8.202688 0.736753 4.594220 14.413659 -7.422571 -4.649070 -15.574339 -9.802706 1.446671 0.000000 0.000000 0.000000 8.202688 0.736753 4.594220 0.639241 -0.327115 -20.374398 0.000000 0.000000 0.000000 -99.749818 37.617820 -14.407536 27.688856 -27.209358 19.480949 0.000000 0.000000 0.000000 8.202688 0.736753 4.594220 6.052460 5.294186 -14.880363 0.000000 0.000000 0.000000 -13.609570 13.413006 5.858992 18.798217 23.131607 -6.242443 0.000000 0.000000 0.000000 
-33.302773 6.083988 -1.012306 0.000000 0.000000 0.000000 -77.989415 -15.609054 102.866262 -20.673244 -14.440661 5.214769 46.854845 39.547693 -6.054749 22.474806 10.014069 -13.008498 -1.175039 0.006586 0.006087 0.000000 0.000000 0.000000 -77.989415 -15.609054 102.866262 -29.109986 -22.515845 -31.371086 81.444658 -16.742141 11.665820 -5.131599 -0.127569 21.349249 -0.001733 0.022433 -0.000224 0.000000 0.000000 0.000000 -77.989415 -15.609054 102.866262 14.013192 0.125805 0.477415 5.715624 -0.628958 3.513430 0.000000 0.000000 0.000000 0.000000 0.000000 0.000000 5.720562 -0.426746 3.525994 7.056811 -7.145801 1.609585 -26.960116 -6.986785 -0.133367 0.000000 0.000000 0.000000 5.720562 -0.426746 3.525994 0.648431 -1.427985 -15.892576 0.000000 0.000000 0.000000 -96.771008 40.301931 -1.127245 60.931100 -17.973064 48.298081 0.000000 0.000000 0.000000 5.720562 -0.426746 3.525994 7.795406 10.130690 -12.171119 0.000000 0.000000 0.000000 -10.263545 6.895279 4.151048 2.439848 25.036398 1.580954 0.000000 0.000000 0.000000 
